<svg width="240" height="240" viewBox="0 0 240 240" fill="none" xmlns="http://www.w3.org/2000/svg">
<g clip-path="url(#clip0_2071_927)">
<path d="M158.305 63.8559H118.913C118.051 63.8585 117.199 63.6644 116.423 63.2883C115.647 62.9122 114.967 62.3641 114.435 61.6855C113.893 61.0006 113.514 60.2011 113.328 59.3478C113.142 58.4945 113.153 57.61 113.36 56.7615C116.99 41.5548 116.99 25.7069 113.36 10.5002C113.153 9.65178 113.142 8.76729 113.328 7.91406C113.514 7.06083 113.893 6.26135 114.435 5.57643C114.967 4.89788 115.647 4.3497 116.423 3.9736C117.199 3.59749 118.051 3.40338 118.913 3.40603H158.305C159.665 3.40994 160.98 3.89649 162.015 4.77902C163.05 5.66156 163.738 6.88277 163.956 8.22515C166.549 25.0632 166.549 42.1988 163.956 59.0368C163.738 60.3792 163.05 61.6004 162.015 62.4829C160.98 63.3655 159.665 63.852 158.305 63.8559Z" fill="#E6E6E6"/>
<path d="M118.913 6.37001C118.499 6.36862 118.09 6.46171 117.718 6.64219C117.345 6.82268 117.018 7.0858 116.762 7.41155C116.499 7.74531 116.315 8.13474 116.225 8.55021C116.135 8.96568 116.141 9.39625 116.242 9.80917C119.981 25.4703 119.981 41.7916 116.242 57.4528C116.141 57.8656 116.135 58.2961 116.225 58.7115C116.315 59.1269 116.499 59.5162 116.762 59.8499C117.018 60.1757 117.345 60.4392 117.718 60.6197C118.09 60.8002 118.499 60.8933 118.913 60.8919H158.305C158.959 60.8922 159.591 60.6605 160.089 60.2383C160.587 59.8162 160.92 59.2308 161.027 58.5865C163.573 42.0469 163.573 25.215 161.027 8.67548C160.92 8.03117 160.587 7.4458 160.089 7.0236C159.591 6.6014 158.959 6.36978 158.305 6.37L118.913 6.37001Z" fill="white"/>
<path d="M149.709 20.6222H129.038C128.252 20.6213 127.499 20.3088 126.943 19.7531C126.387 19.1975 126.075 18.4441 126.074 17.6583V16.5001C126.075 15.7143 126.387 14.9609 126.943 14.4052C127.499 13.8496 128.252 13.5371 129.038 13.5362H149.709C150.495 13.5371 151.248 13.8496 151.804 14.4052C152.36 14.9609 152.672 15.7143 152.673 16.5001V17.6583C152.672 18.4441 152.36 19.1975 151.804 19.7531C151.248 20.3088 150.495 20.6213 149.709 20.6222Z" fill="#E6E6E6"/>
<path d="M149.709 35.2572H129.038C128.252 35.2563 127.499 34.9438 126.943 34.3881C126.387 33.8325 126.075 33.0791 126.074 32.2933V31.1351C126.075 30.3493 126.387 29.5959 126.943 29.0402C127.499 28.4846 128.252 28.1721 129.038 28.1712H149.709C150.495 28.1721 151.248 28.4846 151.804 29.0402C152.36 29.5959 152.672 30.3493 152.673 31.1351V32.2933C152.672 33.0791 152.36 33.8325 151.804 34.3881C151.248 34.9438 150.495 35.2563 149.709 35.2572Z" fill="#E6E6E6"/>
<path d="M149.709 49.8922H129.038C128.252 49.8914 127.499 49.5788 126.943 49.0232C126.387 48.4675 126.075 47.7142 126.074 46.9284V45.7701C126.075 44.9843 126.387 44.231 126.943 43.6753C127.499 43.1197 128.252 42.8071 129.038 42.8063H149.709C150.495 42.8071 151.248 43.1197 151.804 43.6753C152.36 44.231 152.672 44.9843 152.673 45.7701V46.9284C152.672 47.7142 152.36 48.4675 151.804 49.0232C151.248 49.5788 150.495 49.8914 149.709 49.8922Z" fill="#E6E6E6"/>
<path d="M232.405 101.4H193.013C192.15 101.402 191.299 101.208 190.523 100.832C189.747 100.456 189.067 99.9078 188.534 99.2292C187.992 98.5443 187.614 97.7448 187.428 96.8915C187.241 96.0382 187.252 95.1537 187.459 94.3052C191.09 79.0985 191.09 63.2506 187.459 48.0439C187.252 47.1955 187.241 46.311 187.428 45.4578C187.614 44.6045 187.992 43.805 188.534 43.1201C189.067 42.4416 189.747 41.8934 190.523 41.5173C191.299 41.1412 192.15 40.9471 193.013 40.9497H232.405C233.765 40.9536 235.079 41.4402 236.114 42.3227C237.149 43.2053 237.837 44.4265 238.056 45.7688C240.648 62.6069 240.648 79.7425 238.056 96.5805C237.837 97.9229 237.149 99.1441 236.114 100.027C235.079 100.909 233.765 101.396 232.405 101.4Z" fill="#E6E6E6"/>
<path d="M193.013 43.9137C192.599 43.9123 192.19 44.0054 191.817 44.1859C191.444 44.3664 191.117 44.6295 190.862 44.9553C190.598 45.289 190.415 45.6784 190.324 46.0939C190.234 46.5094 190.24 46.94 190.341 47.3529C194.08 63.014 194.08 79.3353 190.341 94.9965C190.24 95.4093 190.234 95.8398 190.324 96.2552C190.415 96.6706 190.598 97.0599 190.862 97.3936C191.117 97.7194 191.444 97.9829 191.817 98.1634C192.19 98.3439 192.599 98.437 193.013 98.4356H232.405C233.058 98.4359 233.69 98.2043 234.188 97.7821C234.687 97.3599 235.019 96.7745 235.126 96.1302C237.673 79.5906 237.673 62.7587 235.126 46.2192C235.019 45.5749 234.687 44.9895 234.188 44.5673C233.69 44.1451 233.058 43.9135 232.405 43.9137L193.013 43.9137Z" fill="white"/>
<path d="M153.859 144.13H114.467C113.568 144.133 112.679 143.93 111.87 143.538C111.06 143.146 110.35 142.574 109.795 141.866C109.23 141.152 108.835 140.318 108.641 139.428C108.447 138.538 108.458 137.616 108.674 136.731C112.295 121.562 112.295 105.754 108.674 90.5853C108.458 89.7005 108.447 88.7782 108.641 87.8885C108.835 86.9988 109.23 86.1651 109.795 85.4509C110.35 84.743 111.06 84.1711 111.87 83.7787C112.679 83.3863 113.568 83.1837 114.467 83.1864H153.859C155.278 83.1907 156.65 83.6984 157.729 84.6193C158.809 85.5402 159.526 86.8144 159.754 88.2149C162.351 105.078 162.351 122.239 159.754 139.102C159.526 140.502 158.809 141.777 157.729 142.697C156.65 143.618 155.278 144.126 153.859 144.13Z" fill="#F2F2F2"/>
<path d="M223.809 65.5758H203.137C202.352 65.5749 201.598 65.2624 201.043 64.7067C200.487 64.1511 200.174 63.3977 200.173 62.6119V61.4537C200.174 60.6679 200.487 59.9145 201.043 59.3589C201.598 58.8032 202.352 58.4907 203.137 58.4898H223.809C224.594 58.4907 225.348 58.8032 225.903 59.3589C226.459 59.9145 226.772 60.6679 226.772 61.4537V62.6119C226.772 63.3977 226.459 64.1511 225.903 64.7067C225.348 65.2624 224.594 65.5749 223.809 65.5758Z" fill="#E6E6E6"/>
<path d="M223.809 80.2108H203.137C202.352 80.21 201.598 79.8974 201.043 79.3418C200.487 78.7861 200.174 78.0328 200.173 77.247V76.0887C200.174 75.3029 200.487 74.5496 201.043 73.9939C201.598 73.4383 202.352 73.1257 203.137 73.1249H223.809C224.594 73.1257 225.348 73.4383 225.903 73.9939C226.459 74.5496 226.772 75.3029 226.772 76.0887V77.247C226.772 78.0328 226.459 78.7861 225.903 79.3418C225.348 79.8974 224.594 80.21 223.809 80.2108Z" fill="#E6E6E6"/>
<path d="M134.274 124.816C140.549 124.816 145.636 119.73 145.636 113.455C145.636 107.18 140.549 102.093 134.274 102.093C127.999 102.093 122.912 107.18 122.912 113.455C122.912 119.73 127.999 124.816 134.274 124.816Z" fill="white"/>
<path d="M139.708 111.973H135.756V108.021C135.756 107.628 135.599 107.251 135.322 106.973C135.044 106.695 134.667 106.539 134.274 106.539C133.881 106.539 133.504 106.695 133.226 106.973C132.948 107.251 132.792 107.628 132.792 108.021V111.973H128.84C128.447 111.973 128.07 112.129 127.792 112.407C127.514 112.685 127.358 113.061 127.358 113.455C127.358 113.848 127.514 114.225 127.792 114.502C128.07 114.78 128.447 114.937 128.84 114.937H132.792V118.888C132.792 119.282 132.948 119.658 133.226 119.936C133.504 120.214 133.881 120.37 134.274 120.37C134.667 120.37 135.044 120.214 135.322 119.936C135.599 119.658 135.756 119.282 135.756 118.888V114.937H139.708C140.101 114.937 140.478 114.78 140.756 114.502C141.033 114.225 141.19 113.848 141.19 113.455C141.19 113.061 141.033 112.685 140.756 112.407C140.478 112.129 140.101 111.973 139.708 111.973Z" fill="#E6E6E6"/>
<path d="M148.599 8.97435H127.852C127.262 8.97369 126.697 8.73927 126.28 8.32252C125.864 7.90577 125.629 7.34073 125.629 6.75137V2.7994C125.629 2.21003 125.864 1.64499 126.28 1.22825C126.697 0.8115 127.262 0.57708 127.852 0.576416H148.599C149.189 0.57708 149.754 0.8115 150.171 1.22825C150.587 1.64499 150.822 2.21003 150.822 2.7994V6.75137C150.822 7.34073 150.587 7.90577 150.171 8.32252C149.754 8.73927 149.189 8.97369 148.599 8.97435Z" fill="#CCCCCC"/>
<path d="M223.687 47.0121H202.939C202.35 47.0114 201.785 46.777 201.368 46.3602C200.951 45.9435 200.717 45.3785 200.716 44.7891V40.8371C200.717 40.2478 200.951 39.6827 201.368 39.266C201.785 38.8492 202.35 38.6148 202.939 38.6141H223.687C224.276 38.6148 224.841 38.8492 225.258 39.266C225.675 39.6827 225.909 40.2478 225.91 40.8371V44.7891C225.909 45.3785 225.675 45.9435 225.258 46.3602C224.841 46.777 224.276 47.0114 223.687 47.0121Z" fill="#CCCCCC"/>
<path d="M43.7661 233.279H49.8225L51.716 209.919H43.7651L43.7661 233.279Z" fill="#FFB8B8"/>
<path d="M42.2214 231.301L54.1484 231.301H54.1489C55.147 231.301 56.1354 231.498 57.0576 231.879C57.9798 232.261 58.8177 232.821 59.5235 233.527C60.2293 234.233 60.7892 235.071 61.1712 235.993C61.5531 236.915 61.7497 237.904 61.7497 238.902V239.149L42.2218 239.149L42.2214 231.301Z" fill="#2F2E41"/>
<path d="M11.1624 233.279H17.2188L20.1002 209.919H11.1614L11.1624 233.279Z" fill="#FFB8B8"/>
<path d="M9.61768 231.301L21.5446 231.301H21.5451C22.5433 231.301 23.5317 231.498 24.4538 231.879C25.376 232.261 26.2139 232.821 26.9198 233.527C27.6256 234.233 28.1854 235.071 28.5674 235.993C28.9494 236.915 29.146 237.904 29.146 238.902V239.149L9.61805 239.149L9.61768 231.301Z" fill="#2F2E41"/>
<path d="M12.2369 225.899C11.6191 225.899 11.0239 225.667 10.5696 225.248C10.3258 225.025 10.1294 224.756 9.9922 224.456C9.85504 224.156 9.77996 223.831 9.77146 223.501L7.34265 136.452L41.8291 145.073L52.4695 176.994C53.8417 181.1 54.4356 185.427 54.221 189.751L52.8997 220.693C52.8696 221.327 52.5965 221.925 52.137 222.363C51.6776 222.801 51.0671 223.045 50.4325 223.044H44.6483C44.0513 223.042 43.4752 222.824 43.0256 222.431C42.576 222.039 42.2831 221.497 42.2007 220.905L38.0665 186.75C37.7052 184.085 36.7731 181.53 35.3338 179.259L27.198 166.377C27.1436 166.291 27.0639 166.224 26.9699 166.185C26.8759 166.146 26.7721 166.137 26.6728 166.159C26.5734 166.181 26.4833 166.234 26.4149 166.309C26.3464 166.384 26.3028 166.479 26.2902 166.58L19.9055 223.433C19.8369 224.01 19.5671 224.544 19.1436 224.941C18.7201 225.338 18.17 225.573 17.5901 225.605L12.3775 225.895C12.3306 225.898 12.2838 225.899 12.2369 225.899Z" fill="#2F2E41"/>
<path d="M36.0902 80.0936C42.7911 80.0936 48.2233 74.6614 48.2233 67.9605C48.2233 61.2596 42.7911 55.8275 36.0902 55.8275C29.3893 55.8275 23.9572 61.2596 23.9572 67.9605C23.9572 74.6614 29.3893 80.0936 36.0902 80.0936Z" fill="#FFB8B8"/>
<path d="M41.6639 148.613C41.4551 148.613 41.2472 148.587 41.0449 148.535L6.82826 139.762C6.21651 139.605 5.68802 139.22 5.35147 138.685C5.01492 138.151 4.89587 137.508 5.01881 136.889L12.8769 94.5577C13.3665 92.1108 14.4426 89.8193 16.0129 87.8799C17.5831 85.9405 19.6007 84.4112 21.8922 83.4233C24.125 82.4351 26.5667 82.0117 29.0019 82.1904C31.437 82.3692 33.7908 83.1447 35.8553 84.4484C36.3343 84.7473 36.8169 85.0731 37.2892 85.4171C39.1905 86.8197 40.741 88.6437 41.8191 90.746C42.8973 92.8484 43.4736 95.172 43.5031 97.5345L44.1279 146.108C44.1321 146.435 44.0716 146.759 43.9497 147.063C43.8279 147.366 43.6472 147.642 43.4181 147.875C43.189 148.107 42.916 148.293 42.6149 148.419C42.3138 148.546 41.9906 148.612 41.6639 148.613Z" fill="#17B8A6"/>
<path d="M10.3488 149.111C9.94067 148.511 9.66917 147.828 9.55345 147.111C9.43774 146.394 9.48064 145.66 9.67911 144.962C9.87758 144.263 10.2268 143.617 10.7022 143.068C11.1776 142.519 11.7675 142.08 12.4305 141.784L10.9086 124.197L18.9736 128.568L19.1824 144.599C19.6064 145.746 19.595 147.008 19.1503 148.147C18.7057 149.286 17.8587 150.223 16.7698 150.779C15.681 151.335 14.4259 151.472 13.2425 151.165C12.0591 150.858 11.0295 150.127 10.3488 149.111Z" fill="#FFB8B8"/>
<path d="M13.2302 139.458C13.0026 139.458 12.776 139.429 12.5555 139.373C12.0813 139.252 11.6487 139.005 11.3033 138.658C10.9579 138.312 10.7126 137.878 10.5934 137.403L6.62995 121.653C5.24484 116.152 5.90513 110.335 8.48799 105.285L16.7915 89.041C17.3164 87.0962 18.5846 85.4356 20.3227 84.4174C22.0608 83.3991 24.1295 83.1048 26.0826 83.5979C27.0561 83.8437 27.9711 84.2803 28.7746 84.8825C29.578 85.4846 30.254 86.2402 30.7632 87.1056C31.2829 87.9833 31.6227 88.9556 31.763 89.966C31.9033 90.9763 31.8412 92.0045 31.5803 92.9906L19.7602 119.422L19.9006 135.248C19.9042 135.806 19.7363 136.352 19.4196 136.812C19.103 137.272 18.6527 137.623 18.1298 137.819L14.1742 139.288C13.8722 139.4 13.5525 139.458 13.2302 139.458Z" fill="#17B8A6"/>
<path d="M69.8104 142.642C69.0889 142.56 68.3942 142.32 67.7753 141.94C67.1564 141.56 66.6284 141.049 66.2284 140.443C65.8284 139.837 65.5662 139.15 65.4602 138.432C65.3542 137.713 65.407 136.98 65.6149 136.285L51.2922 125.965L59.8663 122.704L72.1528 133.003C73.2986 133.43 74.2481 134.262 74.8212 135.342C75.3944 136.422 75.5515 137.675 75.2628 138.863C74.9741 140.051 74.2595 141.092 73.2546 141.789C72.2497 142.485 71.0242 142.789 69.8104 142.642Z" fill="#FFB8B8"/>
<path d="M62.3126 135.107C61.8903 135.106 61.4739 135.008 61.0961 134.819L46.573 127.549C41.5004 125.01 37.5224 120.715 35.3788 115.463L28.4839 98.5734C27.3524 96.9067 26.9212 94.8622 27.2833 92.8805C27.6453 90.8989 28.7716 89.1389 30.4193 87.98C31.2425 87.4011 32.1727 86.9919 33.1557 86.7762C34.1387 86.5605 35.1548 86.5426 36.1448 86.7235C37.1465 86.9036 38.1024 87.2807 38.9572 87.8329C39.812 88.3851 40.5488 89.1015 41.1247 89.9405L53.4475 116.142L65.5335 126.359C65.9591 126.72 66.2634 127.204 66.4054 127.744C66.5473 128.284 66.52 128.854 66.3272 129.378L64.8602 133.334C64.6686 133.853 64.3226 134.301 63.8688 134.617C63.4125 134.936 62.8693 135.107 62.3126 135.107Z" fill="#17B8A6"/>
<path d="M33.5425 80.2793C34.1871 80.5614 35.5073 75.4246 34.9159 74.3973C34.0365 72.8694 34.0885 72.8803 33.5047 71.8695C32.9209 70.8586 32.7902 69.475 33.5462 68.5856C34.3023 67.6961 36.0518 67.8141 36.3968 68.9293C36.1749 66.8111 38.27 65.1085 40.3453 64.63C42.4207 64.1515 44.6097 64.4486 46.6965 64.0228C49.1183 63.5286 51.638 61.4986 50.6718 58.8355C50.5059 58.3921 50.2577 57.9841 49.9401 57.6331C48.8237 56.3778 47.2621 55.8419 45.7352 55.3236C42.5588 54.2455 39.2955 53.1538 35.9432 53.2728C33.1811 53.4173 30.5209 54.3638 28.2883 55.9965C26.0558 57.6292 24.3476 59.8773 23.3728 62.4657C23.1418 63.1133 22.9628 63.7782 22.8376 64.4543C21.6869 70.6412 25.2797 76.7438 31.1151 79.0998L33.5425 80.2793Z" fill="#2F2E41"/>
<path opacity="0.2" d="M19.2164 135.607L19.4916 119.34L28.1084 102.015L21.1924 119.799L19.2164 135.607Z" fill="black"/>
<path d="M97.3554 176.43L60.9783 161.316C60.181 160.988 59.469 160.482 58.8967 159.837C58.3243 159.192 57.9066 158.425 57.6754 157.594C57.4377 156.753 57.3949 155.87 57.5503 155.01C57.7056 154.151 58.055 153.338 58.5718 152.634C67.7591 139.984 73.8395 125.349 76.3213 109.913C76.4557 109.05 76.7851 108.229 77.2846 107.513C77.784 106.797 78.4403 106.204 79.2035 105.779C79.9554 105.357 80.7937 105.111 81.6547 105.062C82.5157 105.012 83.3766 105.16 84.172 105.493L120.549 120.607C121.804 121.132 122.831 122.086 123.448 123.298C124.065 124.51 124.232 125.902 123.918 127.225C119.852 143.769 113.277 159.594 104.423 174.148C103.706 175.304 102.602 176.168 101.308 176.586C100.013 177.004 98.6129 176.949 97.3554 176.43Z" fill="#E6E6E6"/>
<path d="M83.0348 108.23C82.6528 108.07 82.2394 107.999 81.8259 108.023C81.4125 108.046 81.0098 108.164 80.6487 108.367C80.2774 108.574 79.9583 108.863 79.7156 109.212C79.4729 109.561 79.313 109.961 79.248 110.381C76.6921 126.278 70.4299 141.35 60.9682 154.378C60.7162 154.721 60.5457 155.116 60.4695 155.534C60.3934 155.952 60.4136 156.382 60.5288 156.791C60.6399 157.19 60.8407 157.559 61.1156 157.869C61.3906 158.179 61.7326 158.422 62.1156 158.579L98.4926 173.693C99.0957 173.944 99.7682 173.973 100.39 173.774C101.013 173.575 101.544 173.162 101.89 172.608C110.588 158.312 117.046 142.768 121.04 126.517C121.189 125.881 121.106 125.213 120.808 124.632C120.51 124.051 120.015 123.595 119.412 123.344L83.0348 108.23Z" fill="white"/>
<path d="M102.404 141.875L83.3148 133.944C82.5895 133.641 82.0137 133.064 81.7138 132.337C81.4138 131.611 81.4143 130.795 81.715 130.069L82.1594 129C82.4617 128.274 83.0393 127.699 83.7656 127.399C84.492 127.099 85.3076 127.099 86.0336 127.4L105.123 135.331C105.848 135.634 106.424 136.211 106.724 136.937C107.024 137.664 107.023 138.479 106.723 139.205L106.278 140.275C105.976 141 105.398 141.576 104.672 141.876C103.946 142.176 103.13 142.176 102.404 141.875Z" fill="#17B8A6"/>
<path d="M96.7888 155.39L77.6996 147.459C76.9742 147.156 76.3985 146.579 76.0985 145.852C75.7986 145.126 75.799 144.31 76.0998 143.584L76.5441 142.515C76.8464 141.789 77.4241 141.214 78.1504 140.914C78.8767 140.614 79.6924 140.614 80.4184 140.915L99.5076 148.846C100.233 149.148 100.809 149.726 101.109 150.452C101.409 151.179 101.408 151.994 101.107 152.72L100.663 153.79C100.361 154.515 99.783 155.091 99.0567 155.391C98.3304 155.691 97.5148 155.69 96.7888 155.39Z" fill="#17B8A6"/>
<path d="M110.053 122.881C109.767 122.881 109.484 122.825 109.22 122.718L89.9843 114.941C89.4382 114.719 89.0022 114.29 88.7721 113.748C88.5419 113.205 88.5363 112.593 88.7566 112.047L90.238 108.383C90.459 107.836 90.8881 107.4 91.4308 107.17C91.9736 106.94 92.5855 106.934 93.1321 107.155L112.367 114.932C112.913 115.154 113.349 115.583 113.58 116.125C113.81 116.668 113.815 117.28 113.595 117.826L112.114 121.49C111.947 121.9 111.662 122.252 111.295 122.5C110.928 122.747 110.496 122.88 110.053 122.881Z" fill="#CCCCCC"/>
<path d="M69.6535 239.424H0.493996C0.36298 239.424 0.237338 239.372 0.144695 239.279C0.052053 239.187 0 239.061 0 238.93C0 238.799 0.052053 238.673 0.144695 238.58C0.237338 238.488 0.36298 238.436 0.493996 238.436H69.6535C69.7845 238.436 69.9101 238.488 70.0028 238.58C70.0954 238.673 70.1475 238.799 70.1475 238.93C70.1475 239.061 70.0954 239.187 70.0028 239.279C69.9101 239.372 69.7845 239.424 69.6535 239.424Z" fill="#CCCCCC"/>
</g>
<defs>
<clipPath id="clip0_2071_927">
<rect width="240" height="238.847" fill="white" transform="translate(0 0.576416)"/>
</clipPath>
</defs>
</svg>
