<svg width="40" height="40" viewBox="0 0 40 40" fill="none" xmlns="http://www.w3.org/2000/svg">
<path d="M33.75 2.5H6.25C5.25544 2.5 4.30161 2.89509 3.59835 3.59835C2.89509 4.30161 2.5 5.25544 2.5 6.25V33.75C2.5 34.7446 2.89509 35.6984 3.59835 36.4016C4.30161 37.1049 5.25544 37.5 6.25 37.5H21.8937C23.0431 37.5031 24.1817 37.2782 25.2435 36.8383C26.3054 36.3985 27.2695 35.7524 28.08 34.9375L34.9375 28.08C35.7524 27.2695 36.3985 26.3054 36.8383 25.2435C37.2782 24.1817 37.5031 23.0431 37.5 21.8937V6.25C37.5 5.25544 37.1049 4.30161 36.4016 3.59835C35.6984 2.89509 34.7446 2.5 33.75 2.5Z" fill="#00A2B9"/>
<path d="M27.5 23.75C26.5064 23.753 25.5542 24.149 24.8516 24.8516C24.149 25.5542 23.753 26.5064 23.75 27.5V37.3C25.3891 36.9453 26.8909 36.125 28.075 34.9375L34.9375 28.075C36.125 26.8909 36.9453 25.3891 37.3 23.75H27.5Z" fill="#00879A"/>
</svg>
